<svg xmlns="http://www.w3.org/2000/svg" width="720" height="360" viewBox="0 0 720 360" role="img" aria-labelledby="title desc">
  <title id="title">HomeStart cooking stage illustration</title>
  <desc id="desc">A calm cooking setup with a recipe card, pot, spoon, vegetables, and warm progress accents.</desc>
  <rect width="720" height="360" rx="36" fill="#fff7ed"/>
  <circle cx="606" cy="72" r="58" fill="#fed7aa"/>
  <circle cx="108" cy="80" r="44" fill="#ffedd5"/>
  <path d="M72 256c66-30 142-33 219-9 84 27 158 21 230-16 50-26 93-27 127-5v98H72z" fill="#ffe4c0"/>
  <rect x="88" y="246" width="544" height="42" rx="21" fill="#d97706"/>
  <rect x="112" y="272" width="496" height="28" rx="14" fill="#b45309"/>
  <g transform="translate(114 96)">
    <rect x="0" y="0" width="188" height="168" rx="18" fill="#ffffff"/>
    <rect x="0" y="0" width="188" height="48" rx="18" fill="#fb923c"/>
    <path d="M0 28h188v20H0z" fill="#fb923c"/>
    <circle cx="38" cy="24" r="10" fill="#fff7ed"/>
    <rect x="64" y="18" width="82" height="12" rx="6" fill="#fff7ed"/>
    <rect x="28" y="70" width="128" height="10" rx="5" fill="#fdba74"/>
    <rect x="28" y="96" width="104" height="10" rx="5" fill="#fed7aa"/>
    <rect x="28" y="122" width="132" height="10" rx="5" fill="#fed7aa"/>
    <rect x="28" y="148" width="76" height="10" rx="5" fill="#fed7aa"/>
  </g>
  <g transform="translate(332 116)">
    <ellipse cx="134" cy="148" rx="126" ry="26" fill="#92400e" opacity=".14"/>
    <path d="M38 72h192l-19 82H57z" fill="#f97316"/>
    <path d="M58 72h152l-13 61H71z" fill="#fb923c"/>
    <path d="M75 45h118a35 35 0 0 1 35 35H40a35 35 0 0 1 35-35z" fill="#fdba74"/>
    <rect x="88" y="22" width="92" height="28" rx="14" fill="#9a3412"/>
    <circle cx="80" cy="98" r="12" fill="#fff7ed"/>
    <circle cx="190" cy="98" r="12" fill="#fff7ed"/>
    <path d="M238 94c36-14 64-8 84 18" fill="none" stroke="#9a3412" stroke-width="13" stroke-linecap="round"/>
    <path d="M7 94c-31-12-53-4-65 20" fill="none" stroke="#9a3412" stroke-width="13" stroke-linecap="round"/>
  </g>
  <g transform="translate(522 85) rotate(-18)">
    <rect x="0" y="0" width="18" height="138" rx="9" fill="#78350f"/>
    <ellipse cx="9" cy="-10" rx="25" ry="13" fill="#a16207"/>
  </g>
  <g transform="translate(150 270)">
    <circle cx="0" cy="0" r="18" fill="#ef4444"/>
    <path d="M-2-18c6-12 16-13 24-8-2 11-11 17-24 8z" fill="#16a34a"/>
    <circle cx="48" cy="1" r="16" fill="#facc15"/>
    <path d="M38-9c8 3 18 3 26 0M38 10c8-3 18-3 26 0" fill="none" stroke="#fef3c7" stroke-width="3" stroke-linecap="round"/>
    <path d="M90 16c26-35 49-35 70 0-24 12-48 12-70 0z" fill="#22c55e"/>
    <path d="M106 4c9 7 19 7 30 0" fill="none" stroke="#15803d" stroke-width="4" stroke-linecap="round"/>
  </g>
  <g fill="#f97316">
    <circle cx="326" cy="62" r="8"/>
    <circle cx="354" cy="62" r="10"/>
    <circle cx="386" cy="62" r="13"/>
    <circle cx="424" cy="62" r="16"/>
  </g>
  <path d="M304 62h138" stroke="#fed7aa" stroke-width="6" stroke-linecap="round"/>
  <g fill="#fb923c">
    <path d="M640 150l6 15 15 6-15 6-6 15-6-15-15-6 15-6z"/>
    <path d="M76 172l5 12 12 5-12 5-5 12-5-12-12-5 12-5z"/>
  </g>
</svg>
